<svg xmlns="http://www.w3.org/2000/svg" width="512" height="512" style="shape-rendering:geometricPrecision;text-rendering:geometricPrecision;image-rendering:optimizeQuality;fill-rule:evenodd;clip-rule:evenodd"><path fill="#86cd99" d="M215.5-.5h37q-2.178 1.203-5 1.5l-36 36q.834.575 1 1.5a764 764 0 0 1-37 2z" style="opacity:.986"/><path fill="#7fcc97" d="M252.5-.5h34a1957 1957 0 0 1-37 37.5q-2.822.297-5 1.5h-32q-.166-.925-1-1.5l36-36q2.822-.297 5-1.5" style="opacity:.983"/><path fill="#8cce9a" d="M209.5-.5h6l-40 41a1609 1609 0 0 1-34 3q-.166-.925-1-1.5a2285 2285 0 0 0 40-40.5 541 541 0 0 0 29-2" style="opacity:.989"/><path fill="#75c995" d="M286.5-.5h17q22.26 1.674 45 3l-36 37a1006 1006 0 0 0-68-1q2.178-1.203 5-1.5a1957 1957 0 0 0 37-37.5" style="opacity:.988"/><path fill="#92d09c" d="M180.5 1.5a2285 2285 0 0 1-40 40.5q.834.575 1 1.5-25.278 1.193-47 14-.658.098-1-.5a3857 3857 0 0 0 52-52.5 447 447 0 0 1 35-3" style="opacity:.98"/><path fill="#98d19d" d="M145.5 4.5a3857 3857 0 0 1-52 52.5q.342.598 1 .5-21.5 14.5-36 36-25.95 23.685-51.5 50-.575-.834-1.5-1 .26-22.878 8-44 43.5-42.5 86-86 22.114-7.9 46-8" style="opacity:.992"/><path fill="#69c792" d="M348.5 2.5q23.041 1.755 46 4.5 8.437 1.353 16 4.5a771 771 0 0 1-33 33 815 815 0 0 0-65-5z" style="opacity:.985"/><path fill="#9ed29e" d="M99.5 12.5Q57 56 13.5 98.5q21.585-57.84 78-83.5a38 38 0 0 1 8-2.5" style="opacity:.961"/><path fill="#5cc48f" d="M410.5 11.5q23.168 7.082 42 22l-26 29q-16.59-11.04-36-16.5a67.4 67.4 0 0 0-13-1.5 771 771 0 0 0 33-33" style="opacity:.988"/><path fill="#4fc18c" d="M452.5 33.5q20.764 15.757 34 38l-28 29q-12.097-22.113-32-38z" style="opacity:.99"/><path fill="#92d09c" d="M58.5 93.5q-12.81 21.73-14 47-.925-.166-1.5-1a2285 2285 0 0 1-40.5 40 499 499 0 0 1 3-37q.925.166 1.5 1 25.55-26.315 51.5-50" style="opacity:.987"/><path fill="#43bf89" d="M486.5 71.5q14.02 21.558 19 47a1608 1608 0 0 0-34 33.5 2.43 2.43 0 0 1-2 .5q-.141-27.21-11-52z" style="opacity:.986"/><path fill="#8cce9a" d="M44.5 140.5a1238 1238 0 0 1-3 35 580 580 0 0 0-41 40 2277 2277 0 0 1 2-36 2285 2285 0 0 0 40.5-40q.575.834 1.5 1" style="opacity:.988"/><path fill="#37bc87" d="M505.5 118.5a1009 1009 0 0 1 5 66l-37 36a1550 1550 0 0 0-4-68 2.43 2.43 0 0 0 2-.5 1608 1608 0 0 1 34-33.5" style="opacity:.987"/><path fill="#86cd99" d="M41.5 175.5a483 483 0 0 1-2 34l-39 38v-32a580 580 0 0 1 41-40" style="opacity:.989"/><path fill="#7fcc97" d="M39.5 209.5v39l-39 36v-37z" style="opacity:.987"/><path fill="#79ca96" d="M39.5 248.5v30a1021 1021 0 0 1-38 38 642 642 0 0 1-1-32z" style="opacity:.983"/><path fill="#26b983" d="M510.5 184.5q-.258 1.487 1 2v95a1907 1907 0 0 0-37 36.5 2.43 2.43 0 0 1-2 .5 2984 2984 0 0 0 1-98z" style="opacity:.993"/><path fill="#6fc894" d="M39.5 278.5a857 857 0 0 0 3 64l-36 35a875 875 0 0 1-5-61 1021 1021 0 0 0 38-38" style="opacity:.988"/><path fill="#17b57f" d="M511.5 281.5v43a1819 1819 0 0 1-3 30l-45 44a121 121 0 0 0 3.5-15 1495 1495 0 0 0 5.5-65 2.43 2.43 0 0 0 2-.5 1907 1907 0 0 1 37-36.5" style="opacity:.989"/><path fill="#67c692" d="M42.5 342.5a655 655 0 0 0 3 36 2.43 2.43 0 0 0-2 .5 1334 1334 0 0 1-31 30.5q-5.855-15.282-6-32z" style="opacity:.988"/><path fill="#10b47e" d="M508.5 354.5a544 544 0 0 1-3 37 5875 5875 0 0 0-112.5 111 2.43 2.43 0 0 0-.5 2 1698 1698 0 0 1-71 6 609 609 0 0 1 41-42q72.692-3.22 101-70z" style="opacity:.987"/><path fill="#0ab27c" d="M505.5 391.5q-17.161 76.059-89 106.5a159.7 159.7 0 0 1-24 6.5 2.43 2.43 0 0 1 .5-2 5875 5875 0 0 1 112.5-111" style="opacity:.992"/><path fill="#5cc48f" d="M45.5 378.5q3.113 25.851 18 47a267 267 0 0 0-28 27q-15.767-19.024-23-43a1334 1334 0 0 0 31-30.5 2.43 2.43 0 0 1 2-.5" style="opacity:.985"/><path fill="#4fc18c" d="M63.5 425.5q14.774 18.282 35 30 .116 1.875 2 2.5a1084 1084 0 0 1-28 27.5q-21.74-12.733-37-33a267 267 0 0 1 28-27" style="opacity:.985"/><path fill="#43bf89" d="M98.5 455.5q26.248 13.548 56 13a445 445 0 0 1-36 35q-25.07-4.017-46-18a1084 1084 0 0 0 28-27.5q-1.884-.625-2-2.5" style="opacity:.983"/><path fill="#35bc86" d="M154.5 468.5a1527 1527 0 0 0 98 5 1801 1801 0 0 1-35.5 36 2.43 2.43 0 0 0-.5 2h-8a10056 10056 0 0 0-51-3.5q-19.83-1.32-39-4.5a445 445 0 0 0 36-35" style="opacity:.987"/><path fill="#22b882" d="M362.5 468.5a609 609 0 0 0-41 42q-8.29-.482-16 1h-89a2.43 2.43 0 0 1 .5-2 1801 1801 0 0 0 35.5-36 1786 1786 0 0 0 110-5" style="opacity:.991"/></svg>